<svg width="388" height="380" viewBox="0 0 388 380" fill="none" xmlns="http://www.w3.org/2000/svg">
<path d="M254.591 0C278.194 0 297.326 35.9061 297.326 66.3244C297.326 96.7426 278.194 121.408 254.591 121.408C230.988 121.408 211.856 96.7472 211.856 66.3244C211.856 35.9016 230.988 0 254.591 0Z" fill="#C7A18B"/>
<path d="M133.164 0C156.767 0 175.9 35.9061 175.9 66.3244C175.9 96.7426 156.767 121.408 133.164 121.408C109.561 121.408 90.4292 96.7472 90.4292 66.3244C90.4292 35.9016 109.561 0 133.164 0Z" fill="#C7A18B"/>
<path d="M5.17795 160.44C-4.84438 135.346 -0.455911 99.2478 19.5523 91.2555C39.5604 83.2631 67.6111 106.401 77.6334 131.495C87.6557 156.59 79.5631 183.413 59.5549 191.406C39.5467 199.398 15.2003 185.535 5.17795 160.44Z" fill="#C7A18B"/>
<path d="M382.578 160.44C372.555 185.535 348.209 199.398 328.201 191.406C308.193 183.413 300.095 156.59 310.122 131.495C320.145 106.401 348.195 83.2631 368.203 91.2555C388.212 99.2478 392.6 135.346 382.578 160.44Z" fill="#C7A18B"/>
<path d="M346.772 299.053C342.187 278.502 331.262 259.967 319.178 242.787C290.862 202.543 245.509 161.906 193.878 161.906C142.462 161.906 96.9026 202.534 68.5782 242.787C56.4894 259.967 45.5638 278.497 40.9838 299.053C36.3991 319.609 38.9082 342.591 51.6402 359.287C64.3723 375.984 88.4906 384.318 107.349 375.281C118.562 369.907 127.636 359.073 140.007 358.028C151.362 357.07 161.398 364.72 170.873 371.116C177.72 375.737 185.972 379.943 193.878 379.998C201.784 379.943 210.036 375.737 216.883 371.116C226.354 364.72 236.39 357.075 247.748 358.028C260.12 359.068 269.194 369.907 280.407 375.281C299.265 384.318 323.384 375.984 336.116 359.287C348.848 342.591 351.357 319.609 346.772 299.053ZM238.853 274.296C233.027 284.939 223.835 294.318 216.071 301.612C211.897 305.535 207.513 309.203 202.947 312.597L202.919 312.615C197.555 316.566 190.201 316.566 184.836 312.615L184.809 312.597C180.243 309.208 175.859 305.535 171.685 301.612C163.92 294.318 154.728 284.939 148.903 274.296C144.09 265.505 141.577 255.848 144.067 245.785C146.453 236.141 154.067 227.67 163.4 226.483C174.194 225.115 186.757 232.71 193.878 241.433C200.994 232.71 213.562 225.115 224.355 226.483C233.689 227.665 241.303 236.141 243.688 245.785C246.179 255.848 243.666 265.505 238.853 274.296Z" fill="#C7A18B"/>
</svg>
